<?xml version="1.0" encoding="UTF-8"?>
<svg id="Layer_1" data-name="Layer 1" xmlns="http://www.w3.org/2000/svg" viewBox="0 0 48 48">
  <defs>
    <style>
      .cls-1 {
        fill: #99c2e8;
      }

      .cls-2 {
        fill: #dce9f7;
      }
    </style>
  </defs>
  <path class="cls-2" d="M11.36,31.17c-1.52.33-2.89.49-4.11.49s-2.2-.15-2.93-.45c-.73-.3-1.31-.78-1.72-1.44-.42-.66-.7-1.43-.86-2.32-.16-.89-.24-2.01-.24-3.36,0-2.83.4-4.8,1.19-5.91.8-1.11,2.26-1.67,4.4-1.67,1.23,0,2.66.19,4.28.58l-.09,2.37c-1.42-.21-2.6-.32-3.54-.32s-1.61.13-2.01.38c-.4.25-.7.73-.89,1.43-.19.7-.29,1.9-.29,3.59s.2,2.87.59,3.52c.39.65,1.18.98,2.37.98s2.44-.1,3.78-.3l.06,2.43Z"/>
  <path class="cls-2" d="M13.65,31.41v-15.07h2.88v15.07h-2.88Z"/>
  <path class="cls-2" d="M19.33,19.26v-2.93h2.88v2.93h-2.88ZM19.33,31.41v-10.76h2.88v10.76h-2.88Z"/>
  <path class="cls-2" d="M25.46,21.86c.76-.98,2.03-1.48,3.81-1.48s3.05.49,3.81,1.48c.76.98,1.14,2.36,1.14,4.14,0,3.78-1.65,5.66-4.95,5.66s-4.95-1.89-4.95-5.66c0-1.78.38-3.16,1.14-4.14ZM27.69,28.43c.29.52.82.77,1.58.77s1.29-.26,1.58-.77c.29-.52.44-1.33.44-2.43s-.15-1.91-.44-2.41c-.29-.5-.82-.75-1.58-.75s-1.29.25-1.58.75c-.29.5-.44,1.31-.44,2.41s.15,1.92.44,2.43Z"/>
  <path class="cls-1" d="M37.93,16.77l2.71,5.38,2.78-5.38h3.08l-4.22,7.47,4.22,7.17h-3.29l-2.71-5.06-2.78,5.06h-3.08l4.22-7.02-4.22-7.62h3.29Z"/>
</svg>